<svg width="100" height="100" viewBox="0 0 100 100" xmlns="http://www.w3.org/2000/svg">
  <defs>
    <radialGradient id="skinGradientW2" cx="0.5" cy="0.3">
      <stop offset="0%" stop-color="#FED7AA"/>
      <stop offset="100%" stop-color="#FDBA74"/>
    </radialGradient>
    <linearGradient id="uniformGradient2" x1="0%" y1="0%" x2="100%" y2="100%">
      <stop offset="0%" stop-color="#4FADCD"/>
      <stop offset="100%" stop-color="#0EA5E9"/>
    </linearGradient>
  </defs>
  
  <!-- Fond professionnel -->
  <circle cx="50" cy="50" r="48" fill="#4FADCD" opacity="0.1"/>
  
  <!-- Chapeau professionnel -->
  <path d="M35 20 Q50 15 65 20 Q70 25 65 30 Q50 35 35 30 Q30 25 35 20 Z" fill="#193948"/>
  
  <!-- Visage -->
  <circle cx="50" cy="35" r="15" fill="url(#skinGradientW2)"/>
  
  <!-- Uniforme bleu -->
  <path d="M30 65 Q50 55 70 65 L70 85 Q50 90 30 85 Z" fill="url(#uniformGradient2)"/>
  
  <!-- Yeux avec reflets -->
  <circle cx="45" cy="32" r="2.5" fill="#193948"/>
  <circle cx="55" cy="32" r="2.5" fill="#193948"/>
  <circle cx="46" cy="31" r="0.8" fill="#FFFFFF"/>
  <circle cx="56" cy="31" r="0.8" fill="#FFFFFF"/>
  
  <!-- Sourcils -->
  <path d="M42 28 Q45 26 48 28" stroke="#193948" stroke-width="2" fill="none"/>
  <path d="M52 28 Q55 26 58 28" stroke="#193948" stroke-width="2" fill="none"/>
  
  <!-- Sourire professionnel -->
  <path d="M45 40 Q50 43 55 40" stroke="#193948" stroke-width="2" fill="none"/>
  
  <!-- Badge avec étoile -->
  <circle cx="50" cy="75" r="4" fill="#FCDC73"/>
  <path d="M50 72 L51 74 L53 74 L51.5 75.5 L52 77.5 L50 76.5 L48 77.5 L48.5 75.5 L47 74 L49 74 Z" fill="#193948"/>
  
  <!-- Équipement -->
  <rect x="25" y="60" width="3" height="12" fill="#E76268"/>
  <circle cx="26.5" cy="58" r="2" fill="#FCDC73"/>
</svg>