<svg width="100" height="100" viewBox="0 0 100 100" xmlns="http://www.w3.org/2000/svg">
  <defs>
    <radialGradient id="skinGradientW1" cx="0.5" cy="0.3">
      <stop offset="0%" stop-color="#FBBF24"/>
      <stop offset="100%" stop-color="#F59E0B"/>
    </radialGradient>
    <linearGradient id="uniformGradient" x1="0%" y1="0%" x2="100%" y2="100%">
      <stop offset="0%" stop-color="#193948"/>
      <stop offset="100%" stop-color="#1F2937"/>
    </linearGradient>
  </defs>
  
  <!-- Fond professionnel avec couleur marine -->
  <circle cx="50" cy="50" r="48" fill="#193948" opacity="0.1"/>
  
  <!-- Casque de sécurité -->
  <ellipse cx="50" cy="25" rx="18" ry="12" fill="#4FADCD"/>
  <ellipse cx="50" cy="25" rx="16" ry="10" fill="#193948"/>
  
  <!-- Visage -->
  <circle cx="50" cy="35" r="15" fill="url(#skinGradientW1)"/>
  
  <!-- Uniforme professionnel -->
  <path d="M30 65 Q50 55 70 65 L70 85 Q50 90 30 85 Z" fill="url(#uniformGradient)"/>
  
  <!-- Yeux professionnels -->
  <circle cx="45" cy="32" r="2" fill="#193948"/>
  <circle cx="55" cy="32" r="2" fill="#193948"/>
  
  <!-- Sourcils -->
  <path d="M42 28 Q45 26 48 28" stroke="#193948" stroke-width="1.5" fill="none"/>
  <path d="M52 28 Q55 26 58 28" stroke="#193948" stroke-width="1.5" fill="none"/>
  
  <!-- Expression sérieuse -->
  <path d="M45 40 Q50 42 55 40" stroke="#193948" stroke-width="1.5" fill="none"/>
  
  <!-- Badge professionnel -->
  <circle cx="50" cy="75" r="4" fill="#FCDC73"/>
  <text x="50" y="78" text-anchor="middle" font-size="6" fill="#193948" font-weight="bold">K</text>
  
  <!-- Outils -->
  <rect x="65" y="60" width="3" height="12" fill="#E76268"/>
  <circle cx="66.5" cy="58" r="2" fill="#FCDC73"/>
</svg>