<svg width="100" height="100" viewBox="0 0 100 100" xmlns="http://www.w3.org/2000/svg">
  <defs>
    <radialGradient id="skinGradient5" cx="0.5" cy="0.3">
      <stop offset="0%" stop-color="#FBBF24"/>
      <stop offset="100%" stop-color="#F59E0B"/>
    </radialGradient>
    <linearGradient id="hairGradient5" x1="0%" y1="0%" x2="100%" y2="100%">
      <stop offset="0%" stop-color="#E76268"/>
      <stop offset="100%" stop-color="#EF4444"/>
    </linearGradient>
  </defs>
  
  <!-- Fond circulaire -->
  <circle cx="50" cy="50" r="48" fill="#FCDC73" opacity="0.2"/>
  
  <!-- Cheveux avec style unique -->
  <path d="M25 20 Q50 10 75 20 Q80 30 75 50 Q50 60 25 50 Q20 30 25 20 Z" fill="url(#hairGradient5)"/>
  
  <!-- Visage -->
  <circle cx="50" cy="35" r="15" fill="url(#skinGradient5)"/>
  
  <!-- Corps -->
  <path d="M30 65 Q50 55 70 65 L70 85 Q50 90 30 85 Z" fill="#4FADCD"/>
  
  <!-- Yeux expressifs -->
  <circle cx="45" cy="32" r="3" fill="#193948"/>
  <circle cx="55" cy="32" r="3" fill="#193948"/>
  <circle cx="47" cy="30" r="1" fill="#FFFFFF"/>
  <circle cx="57" cy="30" r="1" fill="#FFFFFF"/>
  
  <!-- Sourcils expressifs -->
  <path d="M42 28 Q45 25 48 28" stroke="#193948" stroke-width="2.5" fill="none"/>
  <path d="M52 28 Q55 25 58 28" stroke="#193948" stroke-width="2.5" fill="none"/>
  
  <!-- Sourire joyeux -->
  <path d="M45 40 Q50 46 55 40" stroke="#193948" stroke-width="3" fill="none"/>
  
  <!-- Vêtements colorés -->
  <rect x="35" y="65" width="30" height="20" rx="5" fill="#E76268"/>
  <circle cx="50" cy="75" r="4" fill="#FCDC73"/>
  <circle cx="42" cy="75" r="2" fill="#193948"/>
  <circle cx="58" cy="75" r="2" fill="#193948"/>
</svg>