<svg width="100" height="100" viewBox="0 0 100 100" xmlns="http://www.w3.org/2000/svg">
  <defs>
    <radialGradient id="skinGradient4" cx="0.5" cy="0.3">
      <stop offset="0%" stop-color="#FEF3C7"/>
      <stop offset="100%" stop-color="#FDE68A"/>
    </radialGradient>
    <linearGradient id="hairGradient4" x1="0%" y1="0%" x2="100%" y2="100%">
      <stop offset="0%" stop-color="#374151"/>
      <stop offset="100%" stop-color="#6B7280"/>
    </linearGradient>
  </defs>
  
  <!-- Fond circulaire -->
  <circle cx="50" cy="50" r="48" fill="#4FADCD" opacity="0.2"/>
  
  <!-- Cheveux avec style moderne -->
  <path d="M30 25 Q50 15 70 25 Q75 35 70 45 Q50 55 30 45 Q25 35 30 25 Z" fill="url(#hairGradient4)"/>
  
  <!-- Visage -->
  <circle cx="50" cy="35" r="15" fill="url(#skinGradient4)"/>
  
  <!-- Corps -->
  <path d="M30 65 Q50 55 70 65 L70 85 Q50 90 30 85 Z" fill="#193948"/>
  
  <!-- Yeux avec style moderne -->
  <circle cx="45" cy="32" r="2.5" fill="#193948"/>
  <circle cx="55" cy="32" r="2.5" fill="#193948"/>
  <circle cx="46" cy="31" r="0.8" fill="#FFFFFF"/>
  <circle cx="56" cy="31" r="0.8" fill="#FFFFFF"/>
  
  <!-- Sourcils stylisés -->
  <path d="M42 28 Q45 26 48 28" stroke="#193948" stroke-width="2" fill="none"/>
  <path d="M52 28 Q55 26 58 28" stroke="#193948" stroke-width="2" fill="none"/>
  
  <!-- Sourire moderne -->
  <path d="M45 40 Q50 44 55 40" stroke="#193948" stroke-width="2.5" fill="none"/>
  
  <!-- Vêtements avec style moderne -->
  <rect x="35" y="65" width="30" height="20" rx="5" fill="#FCDC73"/>
  <rect x="40" y="70" width="20" height="2" fill="#193948"/>
  <circle cx="45" cy="75" r="2" fill="#E76268"/>
  <circle cx="55" cy="75" r="2" fill="#E76268"/>
</svg>