<svg width="100" height="100" viewBox="0 0 100 100" xmlns="http://www.w3.org/2000/svg">
  <defs>
    <radialGradient id="skinGradient2" cx="0.5" cy="0.3">
      <stop offset="0%" stop-color="#FED7AA"/>
      <stop offset="100%" stop-color="#FDBA74"/>
    </radialGradient>
    <linearGradient id="hairGradient2" x1="0%" y1="0%" x2="100%" y2="100%">
      <stop offset="0%" stop-color="#92400E"/>
      <stop offset="100%" stop-color="#B45309"/>
    </linearGradient>
  </defs>
  
  <!-- Fond circulaire -->
  <circle cx="50" cy="50" r="48" fill="#E76268" opacity="0.2"/>
  
  <!-- Cheveux longs -->
  <path d="M30 20 Q50 10 70 20 Q75 30 70 50 Q50 60 30 50 Q25 30 30 20 Z" fill="url(#hairGradient2)"/>
  
  <!-- Visage -->
  <circle cx="50" cy="35" r="15" fill="url(#skinGradient2)"/>
  
  <!-- Corps -->
  <path d="M30 65 Q50 55 70 65 L70 85 Q50 90 30 85 Z" fill="#4FADCD"/>
  
  <!-- Yeux avec reflets -->
  <circle cx="45" cy="32" r="2.5" fill="#193948"/>
  <circle cx="55" cy="32" r="2.5" fill="#193948"/>
  <circle cx="46" cy="31" r="0.8" fill="#FFFFFF"/>
  <circle cx="56" cy="31" r="0.8" fill="#FFFFFF"/>
  
  <!-- Sourcils -->
  <path d="M42 28 Q45 26 48 28" stroke="#193948" stroke-width="2" fill="none"/>
  <path d="M52 28 Q55 26 58 28" stroke="#193948" stroke-width="2" fill="none"/>
  
  <!-- Sourire plus prononcé -->
  <path d="M45 40 Q50 45 55 40" stroke="#193948" stroke-width="2.5" fill="none"/>
  
  <!-- Vêtements avec motif -->
  <rect x="35" y="65" width="30" height="20" rx="5" fill="#FCDC73"/>
  <circle cx="45" cy="75" r="2" fill="#E76268"/>
  <circle cx="55" cy="75" r="2" fill="#E76268"/>
</svg>