<svg width="100" height="100" viewBox="0 0 100 100" xmlns="http://www.w3.org/2000/svg">
  <defs>
    <radialGradient id="skinGradient3" cx="0.5" cy="0.3">
      <stop offset="0%" stop-color="#FEF3C7"/>
      <stop offset="100%" stop-color="#FDE68A"/>
    </radialGradient>
    <linearGradient id="hairGradient3" x1="0%" y1="0%" x2="100%" y2="100%">
      <stop offset="0%" stop-color="#E76268"/>
      <stop offset="100%" stop-color="#EF4444"/>
    </linearGradient>
  </defs>
  
  <!-- Fond circulaire -->
  <circle cx="50" cy="50" r="48" fill="#4FADCD" opacity="0.2"/>
  
  <!-- Cheveux courts -->
  <path d="M35 25 Q50 20 65 25 Q70 35 65 40 Q50 45 35 40 Q30 35 35 25 Z" fill="url(#hairGradient3)"/>
  
  <!-- Visage -->
  <circle cx="50" cy="35" r="15" fill="url(#skinGradient3)"/>
  
  <!-- Corps -->
  <path d="M30 65 Q50 55 70 65 L70 85 Q50 90 30 85 Z" fill="#193948"/>
  
  <!-- Yeux -->
  <circle cx="45" cy="32" r="2" fill="#193948"/>
  <circle cx="55" cy="32" r="2" fill="#193948"/>
  
  <!-- Lunettes -->
  <circle cx="45" cy="32" r="4" stroke="#193948" stroke-width="1" fill="none"/>
  <circle cx="55" cy="32" r="4" stroke="#193948" stroke-width="1" fill="none"/>
  <line x1="49" y1="32" x2="51" y2="32" stroke="#193948" stroke-width="1"/>
  
  <!-- Sourire discret -->
  <path d="M45 40 Q50 42 55 40" stroke="#193948" stroke-width="1.5" fill="none"/>
  
  <!-- Vêtements élégants -->
  <rect x="35" y="65" width="30" height="20" rx="5" fill="#FCDC73"/>
  <rect x="40" y="70" width="20" height="2" fill="#193948"/>
</svg>