<svg width="100" height="100" viewBox="0 0 100 100" xmlns="http://www.w3.org/2000/svg">
  <defs>
    <radialGradient id="skinGradient1" cx="0.5" cy="0.3">
      <stop offset="0%" stop-color="#FBBF24"/>
      <stop offset="100%" stop-color="#F59E0B"/>
    </radialGradient>
    <linearGradient id="hairGradient1" x1="0%" y1="0%" x2="100%" y2="100%">
      <stop offset="0%" stop-color="#193948"/>
      <stop offset="100%" stop-color="#374151"/>
    </linearGradient>
  </defs>
  
  <!-- Fond circulaire avec couleur de la palette -->
  <circle cx="50" cy="50" r="48" fill="#FCDC73" opacity="0.2"/>
  
  <!-- Cheveux -->
  <path d="M35 25 Q50 15 65 25 Q70 35 65 45 Q50 50 35 45 Q30 35 35 25 Z" fill="url(#hairGradient1)"/>
  
  <!-- Visage -->
  <circle cx="50" cy="35" r="15" fill="url(#skinGradient1)"/>
  
  <!-- Corps -->
  <path d="M30 65 Q50 55 70 65 L70 85 Q50 90 30 85 Z" fill="#E76268"/>
  
  <!-- Yeux -->
  <circle cx="45" cy="32" r="2" fill="#193948"/>
  <circle cx="55" cy="32" r="2" fill="#193948"/>
  
  <!-- Sourcils -->
  <path d="M42 28 Q45 26 48 28" stroke="#193948" stroke-width="1.5" fill="none"/>
  <path d="M52 28 Q55 26 58 28" stroke="#193948" stroke-width="1.5" fill="none"/>
  
  <!-- Sourire -->
  <path d="M45 40 Q50 43 55 40" stroke="#193948" stroke-width="2" fill="none"/>
  
  <!-- Détails vestimentaires -->
  <rect x="35" y="65" width="30" height="20" rx="5" fill="#4FADCD" opacity="0.8"/>
  <circle cx="50" cy="75" r="3" fill="#FCDC73"/>
</svg>